<svg width="24" height="24" viewBox="0 0 24 24" fill="none" xmlns="http://www.w3.org/2000/svg">
  <path fill-rule="evenodd" clip-rule="evenodd" d="M12 0C5.37 0 0 5.37 0 12C0 18.63 5.37 24 12 24C18.63 24 24 18.63 24 12C24 5.37 18.63 0 12 0ZM12 2.5C17.25 2.5 21.5 6.75 21.5 12C21.5 17.25 17.25 21.5 12 21.5C6.75 21.5 2.5 17.25 2.5 12C2.5 6.75 6.75 2.5 12 2.5ZM10.5 12C10.5 11.17 11.17 10.5 12 10.5C12.83 10.5 13.5 11.17 13.5 12C13.5 12.83 12.83 13.5 12 13.5C11.17 13.5 10.5 12.83 10.5 12Z" fill="#8B5CF6"/>
</svg>
