<svg version="1.1" id="Layer_1" xmlns="http://www.w3.org/2000/svg" xmlns:xlink="http://www.w3.org/1999/xlink" x="0px" y="0px"
	 width="100%" viewBox="0 0 273 252" enable-background="new 0 0 273 252" xml:space="preserve">
<path fill="#8148FF" opacity="1.000000" stroke="none" 
	d="
M189.000000,253.000000 
	C126.000008,253.000000 63.500015,253.000000 1.000017,253.000000 
	C1.000011,169.000015 1.000011,85.000038 1.000006,1.000039 
	C91.999969,1.000026 182.999939,1.000026 273.999939,1.000013 
	C273.999939,84.999962 273.999939,168.999924 273.999969,252.999939 
	C245.833328,253.000000 217.666672,253.000000 189.000000,253.000000 
M156.987518,234.657608 
	C191.323135,226.605988 216.675842,207.010071 231.840988,175.113129 
	C252.813889,131.000656 241.213242,78.420837 202.686569,46.921162 
	C178.617722,27.242321 150.564636,19.395266 119.632095,24.052616 
	C83.666412,29.467779 56.879894,48.665482 40.067951,80.723099 
	C25.037395,109.383896 23.654881,139.398056 35.803486,169.503021 
	C48.899384,201.955429 72.777885,222.904602 106.238197,232.845932 
	C122.656563,237.723953 139.365982,237.967133 156.987518,234.657608 
z"/>
<path fill="#FEFEFF" opacity="1.000000" stroke="none" 
	d="
M156.571457,234.733734 
	C139.365982,237.967133 122.656563,237.723953 106.238197,232.845932 
	C72.777885,222.904602 48.899384,201.955429 35.803486,169.503021 
	C23.654881,139.398056 25.037395,109.383896 40.067951,80.723099 
	C56.879894,48.665482 83.666412,29.467779 119.632095,24.052616 
	C150.564636,19.395266 178.617722,27.242321 202.686569,46.921162 
	C241.213242,78.420837 252.813889,131.000656 231.840988,175.113129 
	C216.675842,207.010071 191.323135,226.605988 156.571457,234.733734 
M176.600677,192.140427 
	C191.450729,180.203476 202.074554,165.579361 205.579117,146.453049 
	C210.442520,119.910744 194.154572,99.530006 167.284210,98.506897 
	C133.319977,97.213676 96.738358,128.944733 93.012596,162.930405 
	C90.171097,188.849976 106.471924,207.682098 132.213364,208.069168 
	C148.701614,208.317093 162.996857,202.164566 176.600677,192.140427 
z"/>
<path fill="#8148FF" opacity="1.000000" stroke="none" 
	d="
M176.328369,192.370071 
	C162.996857,202.164566 148.701614,208.317093 132.213364,208.069168 
	C106.471924,207.682098 90.171097,188.849976 93.012596,162.930405 
	C96.738358,128.944733 133.319977,97.213676 167.284210,98.506897 
	C194.154572,99.530006 210.442520,119.910744 205.579117,146.453049 
	C202.074554,165.579361 191.450729,180.203476 176.328369,192.370071 
z"/>
</svg>