<svg width="16" height="16" viewBox="0 0 24 24" fill="none" xmlns="http://www.w3.org/2000/svg">
  <path d="M19.14 12.94C19.18 12.63 19.2 12.31 19.2 12C19.2 11.69 19.18 11.37 19.14 11.06L21.17 9.48C21.35 9.34 21.4 9.07 21.29 8.87L19.37 5.55C19.26 5.35 19.02 5.28 18.81 5.35L16.42 6.31C15.92 5.93 15.39 5.61 14.79 5.37L14.39 2.5C14.36 2.22 14.13 2 13.84 2H10.16C9.87 2 9.64 2.22 9.61 2.5L9.21 5.37C8.61 5.61 8.08 5.93 7.58 6.31L5.19 5.35C4.98 5.28 4.74 5.35 4.63 5.55L2.71 8.87C2.6 9.07 2.65 9.34 2.83 9.48L4.86 11.06C4.82 11.37 4.8 11.69 4.8 12C4.8 12.31 4.82 12.63 4.86 12.94L2.83 14.52C2.65 14.66 2.6 14.93 2.71 15.13L4.63 18.45C4.74 18.65 4.98 18.72 5.19 18.65L7.58 17.69C8.08 18.07 8.61 18.39 9.21 18.63L9.61 21.5C9.64 21.78 9.87 22 10.16 22H13.84C14.13 22 14.36 21.78 14.39 21.5L14.79 18.63C15.39 18.39 15.92 18.07 16.42 17.69L18.81 18.65C19.02 18.72 19.26 18.65 19.37 18.45L21.29 15.13C21.4 14.93 21.35 14.66 21.17 14.52L19.14 12.94ZM12 15.5C10.067 15.5 8.5 13.933 8.5 12C8.5 10.067 10.067 8.5 12 8.5C13.933 8.5 15.5 10.067 15.5 12C15.5 13.933 13.933 15.5 12 15.5Z" fill="white"/>
</svg>

