<svg xmlns="http://www.w3.org/2000/svg" width="293" height="277" viewBox="0 0 293 277">
<g>
<path d="M 186.57 204.25 C187.92,206.31 188.69,207.96 188.26,207.91 C187.84,207.85 184.19,205.88 180.15,203.51 C161.17,192.42 147.56,192.19 128.25,202.64 C123.71,205.10 120.00,206.74 119.99,206.30 C119.99,205.86 122.22,201.00 124.95,195.50 C134.11,177.05 134.05,168.68 124.63,149.75 C121.69,143.84 119.51,139.00 119.80,139.00 C120.08,139.00 125.31,141.46 131.41,144.46 C145.26,151.27 150.99,152.43 160.47,150.30 C168.62,148.48 173.88,146.34 182.13,141.50 C185.42,139.58 188.26,138.00 188.46,138.00 C188.65,138.00 186.82,141.49 184.38,145.75 C173.12,165.50 172.39,176.08 181.04,194.11 C182.73,197.63 185.21,202.19 186.57,204.25 ZM 126.41 199.85 C127.40,201.46 128.35,201.30 131.27,199.00 C132.67,197.90 134.53,197.00 135.41,197.00 C136.28,197.00 137.00,196.60 137.00,196.11 C137.00,193.77 161.30,192.53 167.00,194.57 C170.73,195.91 174.93,196.94 176.39,196.87 C176.88,196.85 177.63,197.41 178.07,198.11 C180.06,201.34 177.37,189.80 174.78,184.02 C172.34,178.57 171.98,176.74 172.51,172.52 C173.45,165.02 175.89,155.79 177.39,154.04 C179.16,151.98 179.94,148.52 178.98,146.96 C178.39,146.01 176.88,146.44 172.80,148.74 C168.46,151.19 165.76,151.92 158.95,152.45 C154.27,152.82 148.49,152.67 146.00,152.13 C136.90,150.13 132.44,148.63 130.06,146.80 C127.93,145.15 127.52,145.11 126.77,146.44 C126.20,147.47 126.81,149.54 128.61,152.73 C131.43,157.71 131.80,159.51 132.64,172.24 C133.06,178.62 132.77,181.01 130.97,185.74 C129.78,188.91 128.84,192.58 128.90,193.89 C128.95,195.20 128.26,196.82 127.35,197.49 C126.44,198.15 126.01,199.21 126.41,199.85 ZM 150.15 242.32 C147.37,244.57 121.03,243.49 112.82,240.78 C105.12,238.24 93.05,229.53 89.27,223.79 C80.49,210.46 78.00,195.19 81.57,176.50 C82.40,172.10 83.30,167.15 83.55,165.50 C83.80,163.84 85.12,161.68 86.50,160.67 C88.18,159.43 89.00,157.87 89.00,155.89 C89.00,154.04 90.08,151.75 91.93,149.72 C96.79,144.37 100.91,138.25 100.18,137.44 C99.81,137.02 100.02,136.98 100.66,137.34 C101.35,137.74 102.96,136.18 104.66,133.47 C106.22,130.98 108.52,128.68 109.77,128.36 C111.01,128.04 112.92,126.64 114.02,125.25 C115.11,123.87 116.00,123.03 116.00,123.40 C116.00,124.15 117.85,122.76 121.85,119.00 C123.31,117.63 125.40,116.01 126.50,115.40 C134.97,110.72 138.51,109.00 141.76,107.99 C143.82,107.35 146.92,106.19 148.65,105.41 C150.38,104.64 153.08,103.99 154.65,103.99 C156.22,103.98 159.86,103.35 162.75,102.58 C165.65,101.81 168.80,101.33 169.75,101.51 C170.71,101.70 171.84,101.88 172.25,101.92 C172.66,101.97 173.00,102.38 173.00,102.85 C173.00,103.32 169.74,103.99 165.75,104.34 C129.65,107.47 93.23,139.14 84.01,175.41 C81.65,184.69 81.35,198.99 83.36,206.50 C87.73,222.85 102.75,236.93 119.65,240.51 C146.77,246.26 177.44,234.65 200.50,209.90 C228.52,179.84 232.86,139.22 210.34,117.88 C202.12,110.07 195.47,106.92 182.00,104.43 L 175.50 103.22 L 181.07 103.11 C189.32,102.95 200.71,106.97 206.25,112.00 C207.77,113.38 209.20,114.28 209.43,114.00 C209.67,113.72 210.92,115.07 212.21,117.00 C213.49,118.93 215.55,120.94 216.77,121.49 C218.16,122.10 219.23,123.70 219.61,125.74 C219.95,127.53 220.55,129.00 220.96,129.00 C221.36,129.00 222.93,134.00 224.44,140.11 C226.74,149.43 227.07,152.36 226.48,158.36 C226.10,162.29 225.14,167.30 224.36,169.50 C223.58,171.70 222.68,175.52 222.36,178.00 C222.04,180.48 221.18,183.18 220.46,184.00 C219.74,184.82 217.76,188.29 216.07,191.69 C214.39,195.09 212.54,198.17 211.96,198.52 C211.39,198.88 209.80,200.94 208.44,203.10 C205.21,208.21 194.10,219.30 186.50,225.00 C183.20,227.47 180.27,229.72 180.00,230.00 C178.26,231.75 163.42,238.20 158.00,239.57 C154.43,240.48 150.89,241.71 150.15,242.32 ZM 173.96 258.56 C165.33,260.73 160.70,261.25 147.50,261.52 C147.11,261.53 146.72,261.54 146.35,261.54 C137.70,261.72 133.80,261.81 129.96,261.38 C126.63,261.01 123.35,260.26 117.06,258.86 C105.19,256.23 96.80,253.10 86.03,247.31 C63.46,235.16 43.99,215.04 33.82,193.35 C31.72,188.87 30.00,184.88 30.00,184.48 C30.00,182.36 33.11,186.88 36.03,193.25 C38.93,199.57 42.32,205.39 44.03,207.00 C44.33,207.27 46.23,210.04 48.27,213.14 C55.35,223.96 69.06,236.14 81.00,242.24 C84.03,243.78 88.30,246.15 90.50,247.51 C92.70,248.86 95.42,249.97 96.55,249.98 C97.68,249.99 99.03,250.39 99.55,250.87 C100.07,251.35 102.75,252.52 105.50,253.47 C108.25,254.43 111.40,255.56 112.50,255.98 C118.27,258.21 126.62,259.24 139.35,259.29 C153.54,259.35 171.76,257.71 175.50,256.02 C179.32,254.31 192.84,250.00 194.42,250.00 C195.29,250.00 196.00,249.55 196.00,249.00 C196.00,248.45 196.83,248.00 197.85,248.00 C198.86,248.00 200.73,247.10 202.00,246.00 C203.27,244.90 204.70,244.00 205.17,244.00 C206.01,244.00 213.99,239.10 215.00,237.96 C215.27,237.65 217.22,236.10 219.32,234.53 C228.30,227.78 245.00,209.40 245.00,206.25 C245.00,204.64 251.67,198.34 252.50,199.17 C253.55,200.22 240.48,217.65 233.06,225.08 C215.89,242.28 197.68,252.60 173.96,258.56 ZM 264.62 165.64 C263.82,169.41 262.71,173.62 262.15,175.00 C261.24,177.23 261.12,176.99 261.06,172.81 C261.03,170.23 261.48,167.82 262.06,167.46 C262.66,167.09 262.85,165.57 262.48,163.93 C262.07,162.05 262.40,160.27 263.43,158.80 C264.67,157.02 265.00,153.70 265.00,142.84 C265.00,134.77 264.59,128.86 264.00,128.50 C263.45,128.16 263.00,126.14 263.00,124.00 C263.00,121.86 262.55,119.84 262.00,119.50 C261.45,119.16 261.00,117.52 261.00,115.86 C261.00,112.50 257.53,103.11 252.35,92.50 C247.05,81.61 244.24,77.38 239.61,73.29 C237.25,71.20 234.75,68.38 234.06,67.00 C232.48,63.87 223.27,55.00 221.61,55.00 C220.93,55.00 219.05,53.59 217.44,51.87 C215.82,50.16 211.84,47.47 208.58,45.92 C205.33,44.36 202.41,42.67 202.08,42.17 C201.31,40.97 191.42,36.00 189.78,35.99 C189.08,35.99 187.15,35.27 185.50,34.39 C183.85,33.51 179.35,32.19 175.50,31.45 C171.65,30.72 166.70,29.56 164.50,28.88 C162.30,28.21 153.30,27.38 144.50,27.03 L 128.50 26.40 L 143.64 26.20 C165.93,25.90 183.58,29.87 202.17,39.36 C234.18,55.70 257.14,85.95 264.46,121.47 C266.58,131.70 266.66,156.00 264.62,165.64 ZM 37.96 88.90 C37.90,91.26 34.52,97.19 33.71,96.37 C32.72,95.39 40.21,81.82 46.19,73.75 C52.52,65.20 65.30,53.27 75.00,46.84 C83.17,41.43 98.17,33.91 104.51,32.06 C114.11,29.25 118.82,28.14 123.50,27.58 L 128.50 26.98 L 123.50 28.56 C120.75,29.43 117.03,30.39 115.24,30.68 C113.45,30.98 111.73,31.62 111.43,32.11 C111.13,32.60 109.59,33.00 108.00,33.00 C106.41,33.00 104.86,33.42 104.55,33.92 C104.23,34.43 102.74,35.12 101.23,35.45 C96.02,36.59 74.10,48.76 70.18,52.68 C69.43,53.43 67.62,54.67 66.16,55.44 C63.21,56.98 55.00,65.29 55.00,66.73 C55.00,67.23 53.09,69.47 50.75,71.71 C45.30,76.93 42.00,81.00 42.00,82.50 C42.00,83.16 41.10,84.50 40.00,85.50 C38.90,86.50 37.98,88.03 37.96,88.90 ZM 27.43 168.50 C27.71,170.15 27.59,172.05 27.17,172.73 C25.56,175.33 22.99,157.67 23.00,144.00 C23.00,129.27 24.51,119.30 28.55,107.25 C31.64,98.05 32.92,95.52 32.97,98.56 C32.99,99.69 32.34,101.49 31.53,102.56 C30.72,103.63 30.05,105.75 30.03,107.29 C30.01,108.82 29.38,111.07 28.62,112.29 C27.86,113.50 27.19,116.44 27.13,118.81 C27.06,121.17 26.57,123.94 26.02,124.96 C24.28,128.22 24.53,157.64 26.36,163.63 C26.67,164.66 27.15,166.85 27.43,168.50 ZM 28.98 176.97 C29.61,178.14 29.98,180.06 29.81,181.23 C29.57,182.90 29.22,182.56 28.16,179.60 C26.66,175.42 27.21,173.66 28.98,176.97 Z" fill="rgb(135,89,231)"/>
<path d="M 264.62 165.64 C264.71,165.24 264.79,164.81 264.86,164.36 C264.03,170.01 262.75,174.56 260.94,178.50 C258.97,182.82 253.81,195.61 253.28,197.50 C253.15,197.99 252.90,198.61 252.56,199.31 C252.55,199.25 252.53,199.20 252.50,199.17 C251.67,198.34 245.00,204.64 245.00,206.25 C245.00,209.40 228.30,227.78 219.32,234.53 C217.22,236.10 215.27,237.65 215.00,237.96 C213.99,239.10 206.01,244.00 205.17,244.00 C204.70,244.00 203.27,244.90 202.00,246.00 C200.73,247.10 198.86,248.00 197.85,248.00 C196.83,248.00 196.00,248.45 196.00,249.00 C196.00,249.55 195.29,250.00 194.42,250.00 C192.84,250.00 179.32,254.31 175.50,256.02 C171.76,257.71 153.54,259.35 139.35,259.29 C126.62,259.24 118.27,258.21 112.50,255.98 C111.40,255.56 108.25,254.43 105.50,253.47 C102.75,252.52 100.07,251.35 99.55,250.87 C99.03,250.39 97.68,249.99 96.55,249.98 C95.42,249.97 92.70,248.86 90.50,247.51 C88.30,246.15 84.03,243.78 81.00,242.24 C69.06,236.14 55.35,223.96 48.27,213.14 C46.23,210.04 44.33,207.27 44.03,207.00 C42.32,205.39 38.93,199.57 36.03,193.25 C33.11,186.88 30.00,182.36 30.00,184.48 C30.00,184.50 30.00,184.52 30.01,184.55 C29.67,183.62 29.33,182.67 29.01,181.72 C29.44,182.56 29.65,182.34 29.81,181.23 C29.98,180.06 29.61,178.14 28.98,176.97 C27.81,174.78 27.18,174.81 27.31,176.28 C26.94,174.99 26.58,173.67 26.24,172.34 C26.57,173.02 26.88,173.19 27.17,172.73 C27.59,172.05 27.71,170.15 27.43,168.50 C27.15,166.85 26.67,164.66 26.36,163.63 C24.53,157.64 24.28,128.22 26.02,124.96 C26.57,123.94 27.06,121.17 27.13,118.81 C27.19,116.44 27.86,113.50 28.62,112.29 C29.38,111.07 30.01,108.82 30.03,107.29 C30.05,105.75 30.72,103.63 31.53,102.56 C32.34,101.49 32.99,99.69 32.97,98.56 C32.95,97.29 32.72,96.99 32.22,97.75 C34.88,91.68 38.05,85.87 41.69,80.37 C37.06,87.69 32.96,95.63 33.71,96.37 C34.52,97.19 37.90,91.26 37.96,88.90 C37.98,88.03 38.90,86.50 40.00,85.50 C41.10,84.50 42.00,83.16 42.00,82.50 C42.00,81.00 45.30,76.93 50.75,71.71 C53.09,69.47 55.00,67.23 55.00,66.73 C55.00,65.29 63.21,56.98 66.16,55.44 C67.62,54.67 69.43,53.43 70.18,52.68 C74.10,48.76 96.02,36.59 101.23,35.45 C102.74,35.12 104.23,34.43 104.55,33.92 C104.86,33.42 106.41,33.00 108.00,33.00 C109.59,33.00 111.13,32.60 111.43,32.11 C111.73,31.62 113.45,30.98 115.24,30.68 C117.03,30.39 120.75,29.43 123.50,28.56 L 128.50 26.98 L 123.50 27.58 C122.86,27.66 122.21,27.74 121.55,27.85 C122.18,27.72 122.83,27.60 123.50,27.48 C125.71,27.07 128.41,26.75 131.39,26.52 L 144.50 27.03 C153.30,27.38 162.30,28.21 164.50,28.88 C166.70,29.56 171.65,30.72 175.50,31.45 C179.35,32.19 183.85,33.51 185.50,34.39 C187.15,35.27 189.08,35.99 189.78,35.99 C191.42,36.00 201.31,40.97 202.08,42.17 C202.41,42.67 205.33,44.36 208.58,45.92 C211.84,47.47 215.82,50.16 217.44,51.87 C219.05,53.59 220.93,55.00 221.61,55.00 C223.27,55.00 232.48,63.87 234.06,67.00 C234.75,68.38 237.25,71.20 239.61,73.29 C244.24,77.38 247.05,81.61 252.35,92.50 C257.53,103.11 261.00,112.50 261.00,115.86 C261.00,117.52 261.45,119.16 262.00,119.50 C262.55,119.84 263.00,121.86 263.00,124.00 C263.00,126.14 263.45,128.16 264.00,128.50 C264.59,128.86 265.00,134.77 265.00,142.84 C265.00,153.70 264.67,157.02 263.43,158.80 C262.40,160.27 262.07,162.05 262.48,163.93 C262.85,165.57 262.66,167.09 262.06,167.46 C261.48,167.82 261.03,170.23 261.06,172.81 C261.12,176.99 261.24,177.23 262.15,175.00 C262.71,173.62 263.82,169.41 264.62,165.64 ZM 150.15 242.32 C150.89,241.71 154.43,240.48 158.00,239.57 C163.42,238.20 178.26,231.75 180.00,230.00 C180.27,229.72 183.20,227.47 186.50,225.00 C194.10,219.30 205.21,208.21 208.44,203.10 C209.80,200.94 211.39,198.88 211.96,198.52 C212.54,198.17 214.39,195.09 216.07,191.69 C217.76,188.29 219.74,184.82 220.46,184.00 C221.18,183.18 222.04,180.48 222.36,178.00 C222.68,175.52 223.58,171.70 224.36,169.50 C225.14,167.30 226.10,162.29 226.48,158.36 C227.07,152.36 226.74,149.43 224.44,140.11 C222.93,134.00 221.36,129.00 220.96,129.00 C220.55,129.00 219.95,127.53 219.61,125.74 C219.23,123.70 218.16,122.10 216.77,121.49 C215.55,120.94 213.49,118.93 212.21,117.00 C210.92,115.07 209.67,113.72 209.43,114.00 C209.20,114.28 207.77,113.38 206.25,112.00 C200.71,106.97 189.32,102.95 181.07,103.11 L 175.50 103.22 L 182.00 104.43 C183.55,104.71 185.01,105.01 186.39,105.32 C179.01,104.15 167.70,104.10 159.37,105.18 C161.49,104.80 163.62,104.52 165.75,104.34 C169.74,103.99 173.00,103.32 173.00,102.85 C173.00,102.38 172.66,101.97 172.25,101.92 C171.84,101.88 170.71,101.70 169.75,101.51 C168.80,101.33 165.65,101.81 162.75,102.58 C159.86,103.35 156.22,103.98 154.65,103.99 C153.08,103.99 150.38,104.64 148.65,105.41 C146.92,106.19 143.82,107.35 141.76,107.99 C138.51,109.00 134.97,110.72 126.50,115.40 C125.40,116.01 123.31,117.63 121.85,119.00 C117.85,122.76 116.00,124.15 116.00,123.40 C116.00,123.03 115.11,123.87 114.02,125.25 C112.92,126.64 111.01,128.04 109.77,128.36 C108.52,128.68 106.22,130.98 104.66,133.47 C102.96,136.18 101.35,137.74 100.66,137.34 C100.02,136.98 99.81,137.02 100.18,137.44 C100.91,138.25 96.79,144.37 91.93,149.72 C90.08,151.75 89.00,154.04 89.00,155.89 C89.00,157.87 88.18,159.43 86.50,160.67 C85.12,161.68 83.80,163.84 83.55,165.50 C83.30,167.15 82.40,172.10 81.57,176.50 C78.00,195.19 80.49,210.46 89.27,223.79 C93.05,229.53 105.12,238.24 112.82,240.78 C121.03,243.49 147.37,244.57 150.15,242.32 ZM 126.41 199.85 C126.01,199.21 126.44,198.15 127.35,197.49 C128.26,196.82 128.95,195.20 128.90,193.89 C128.84,192.58 129.78,188.91 130.97,185.74 C132.77,181.01 133.06,178.62 132.64,172.24 C131.80,159.51 131.43,157.71 128.61,152.73 C126.81,149.54 126.20,147.47 126.77,146.44 C127.52,145.11 127.93,145.15 130.06,146.80 C132.44,148.63 136.90,150.13 146.00,152.13 C148.49,152.67 154.27,152.82 158.95,152.45 C165.76,151.92 168.46,151.19 172.80,148.74 C176.88,146.44 178.39,146.01 178.98,146.96 C179.94,148.52 179.16,151.98 177.39,154.04 C175.89,155.79 173.45,165.02 172.51,172.52 C171.98,176.74 172.34,178.57 174.78,184.02 C177.37,189.80 180.06,201.34 178.07,198.11 C177.63,197.41 176.88,196.85 176.39,196.87 C174.93,196.94 170.73,195.91 167.00,194.57 C161.30,192.53 137.00,193.77 137.00,196.11 C137.00,196.60 136.28,197.00 135.41,197.00 C134.53,197.00 132.67,197.90 131.27,199.00 C128.35,201.30 127.40,201.46 126.41,199.85 ZM 172.63 28.75 C163.61,26.87 154.14,26.06 143.64,26.20 L 134.16 26.33 C145.30,25.68 159.32,26.10 167.14,27.58 C168.97,27.93 170.80,28.32 172.63,28.75 ZM 228.50 57.72 C221.32,51.08 213.28,45.32 204.53,40.60 C209.11,43.00 213.43,45.63 217.36,48.44 C221.09,51.10 224.85,54.25 228.50,57.72 ZM 60.38 228.90 C68.13,236.07 76.82,242.35 86.03,247.31 C87.96,248.35 89.81,249.30 91.62,250.18 C80.11,244.77 69.53,237.58 60.38,228.90 ZM 26.16 115.27 C23.90,124.10 23.00,132.63 23.00,144.00 C22.99,150.47 23.57,157.83 24.34,163.52 C22.49,151.60 22.48,133.21 24.49,122.70 C24.97,120.19 25.53,117.71 26.16,115.27 ZM 84.01 175.41 C85.99,167.64 89.21,160.08 93.41,152.96 C87.65,162.81 83.83,173.43 82.52,184.14 C82.85,181.01 83.35,178.01 84.01,175.41 ZM 264.29 120.66 C262.80,113.67 260.70,106.89 258.05,100.38 C261.04,107.51 263.04,113.90 264.29,120.66 ZM 140.00 241.68 C161.31,239.75 183.14,228.53 200.50,209.90 C183.07,228.60 161.30,239.80 140.00,241.68 ZM 30.80 186.63 C31.50,188.30 32.60,190.74 33.82,193.35 C35.68,197.31 37.84,201.22 40.28,205.03 C36.45,199.16 33.35,193.13 30.80,186.63 ZM 91.41 222.38 C92.45,223.67 93.60,224.97 94.85,226.28 C99.00,230.63 104.02,234.30 109.26,236.91 C102.33,233.53 96.13,228.46 91.41,222.38 ZM 82.03 194.28 C82.15,199.82 82.76,204.50 84.03,208.73 C83.78,207.99 83.56,207.25 83.36,206.50 C82.51,203.34 82.08,198.97 82.03,194.28 ZM 94.54 36.12 C90.34,38.10 85.69,40.51 81.54,42.86 C84.75,40.97 88.08,39.20 91.51,37.55 C92.56,37.05 93.57,36.57 94.54,36.12 ZM 114.43 29.32 C111.89,29.95 108.89,30.78 105.12,31.88 C108.01,30.92 111.00,30.10 114.43,29.32 ZM 233.07 225.08 C228.30,229.85 223.46,234.09 218.45,237.85 C223.46,234.09 228.30,229.85 233.06,225.08 C236.08,222.06 240.04,217.38 243.60,212.82 C240.17,217.29 236.36,221.78 233.07,225.08 ZM 254.48 92.46 C253.05,89.57 251.51,86.75 249.86,83.99 C251.59,86.83 253.14,89.65 254.46,92.41 ZM 193.87 107.42 C196.36,108.29 198.59,109.29 200.71,110.50 C198.70,109.38 196.50,108.41 193.87,107.42 ZM 64.30 55.05 C61.88,57.13 59.47,59.33 57.17,61.55 C59.45,59.30 61.83,57.13 64.30,55.05 ZM 266.06 140.25 C266.00,137.36 265.88,134.52 265.70,131.86 C265.90,134.52 266.01,137.30 266.06,140.25 ZM 28.81 106.47 C28.73,106.73 28.64,106.99 28.55,107.25 C28.10,108.59 27.68,109.91 27.29,111.20 C27.77,109.61 28.27,108.04 28.81,106.47 Z" fill="rgb(140,82,253)"/>
<path d="M 0.00 138.50 L 0.00 0.00 L 146.50 0.00 L 293.00 0.00 L 293.00 138.50 L 293.00 277.00 L 146.50 277.00 L 0.00 277.00 L 0.00 138.50 ZM 173.96 258.56 C197.68,252.60 215.88,242.29 233.07,225.08 C241.01,217.12 251.99,202.15 253.28,197.50 C253.81,195.61 258.97,182.82 260.94,178.50 C264.53,170.67 266.06,160.42 266.08,143.97 C266.12,123.24 263.37,111.03 254.46,92.41 C246.88,76.57 231.91,58.82 217.36,48.44 C203.63,38.64 185.29,31.03 167.14,27.58 C156.45,25.56 134.19,25.51 123.50,27.48 C109.20,30.12 102.77,32.14 91.51,37.55 C55.90,54.64 31.61,85.50 24.49,122.70 C22.26,134.39 22.52,155.82 25.03,167.26 C30.21,190.79 39.11,207.05 56.84,225.39 C72.90,242.02 94.01,253.75 117.06,258.86 C130.92,261.94 130.20,261.88 147.50,261.52 C160.70,261.25 165.33,260.73 173.96,258.56 ZM 119.18 240.47 C110.62,238.61 101.59,233.35 94.85,226.28 C85.39,216.36 82.03,207.51 82.01,192.41 C81.96,155.66 113.09,117.95 153.00,106.42 C162.24,103.75 183.26,103.73 191.00,106.39 C199.89,109.44 204.05,111.91 210.34,117.88 C232.86,139.22 228.52,179.84 200.50,209.90 C177.39,234.70 146.35,246.37 119.18,240.47 ZM 186.57 204.25 C185.21,202.19 182.73,197.63 181.04,194.11 C172.39,176.08 173.12,165.50 184.38,145.75 C186.82,141.49 188.65,138.00 188.46,138.00 C188.26,138.00 185.42,139.58 182.13,141.50 C173.88,146.34 168.62,148.48 160.47,150.30 C150.99,152.43 145.26,151.27 131.41,144.46 C125.31,141.46 120.08,139.00 119.80,139.00 C119.51,139.00 121.69,143.84 124.63,149.75 C134.05,168.68 134.11,177.05 124.95,195.50 C122.22,201.00 119.99,205.86 119.99,206.30 C120.00,206.74 123.71,205.10 128.25,202.64 C147.56,192.19 161.17,192.42 180.15,203.51 C184.19,205.88 187.84,207.85 188.26,207.91 C188.69,207.96 187.92,206.31 186.57,204.25 Z" fill="rgb(254,254,254)"/>
</g>
</svg>







