<svg version="1.1" id="Layer_1" xmlns="http://www.w3.org/2000/svg" xmlns:xlink="http://www.w3.org/1999/xlink" x="0px" y="0px"
	 width="100%" viewBox="0 0 304 278" enable-background="new 0 0 304 278" xml:space="preserve">
<path fill="#000000" opacity="1.000000" stroke="none" 
	d="
M214.000000,279.000000 
	C142.697098,279.000000 71.894196,279.000000 1.045648,279.000000 
	C1.045648,186.403595 1.045648,93.807167 1.045648,1.105367 
	C102.219460,1.105367 203.439056,1.105367 304.829346,1.105367 
	C304.829346,93.666405 304.829346,186.333176 304.829346,279.000000 
	C274.807343,279.000000 244.653671,279.000000 214.000000,279.000000 
M153.484100,21.001936 
	C143.038544,21.529242 132.439316,21.142345 122.194603,22.864494 
	C113.534523,24.320267 105.222275,28.047882 96.878868,31.105099 
	C92.233200,32.807373 87.759254,35.041702 83.357841,37.325214 
	C80.343620,38.889030 77.306229,40.630196 74.772926,42.854420 
	C68.847000,48.057335 62.875462,53.284924 57.562634,59.088619 
	C51.890911,65.284378 45.899117,71.576859 41.924465,78.852707 
	C34.389359,92.646179 27.654478,106.905174 26.292814,123.092323 
	C25.250677,135.481003 24.405453,147.855896 27.120684,160.025864 
	C28.947104,168.212112 32.223213,176.064133 34.557461,184.150330 
	C38.178776,196.695145 46.265686,206.449615 54.580482,215.908035 
	C63.119049,225.621002 73.257729,233.434219 84.406555,240.258621 
	C95.057556,246.778290 106.489456,251.140213 118.154480,254.680084 
	C125.425453,256.886536 133.527542,256.489441 141.275131,256.949493 
	C148.139633,257.357086 155.118317,258.110565 161.889587,257.337006 
	C175.092331,255.828674 188.085037,252.685562 200.091248,246.884033 
	C216.243561,239.079056 230.565918,229.002090 242.317276,214.855820 
	C250.096252,205.491516 255.593948,195.064072 261.503174,184.755646 
	C263.982758,180.430084 265.939301,175.455765 266.678558,170.556793 
	C268.061310,161.393875 271.582458,152.506119 269.278534,142.736984 
	C268.277252,138.491516 271.338654,133.400452 270.781219,128.913788 
	C269.699310,120.205276 268.256500,111.336456 265.343719,103.107277 
	C260.646118,89.835640 253.940140,77.563522 245.274628,66.162170 
	C237.380096,55.775257 227.581207,47.737534 217.314285,40.387997 
	C210.067551,35.200459 201.262131,32.065659 192.924561,28.556137 
	C180.677399,23.400965 167.883926,20.492132 153.484100,21.001936 
z"/>
<path fill="#FFFEFE" opacity="1.000000" stroke="none" 
	d="
M153.978241,21.002050 
	C167.883926,20.492132 180.677399,23.400965 192.924561,28.556137 
	C201.262131,32.065659 210.067551,35.200459 217.314285,40.387997 
	C227.581207,47.737534 237.380096,55.775257 245.274628,66.162170 
	C253.940140,77.563522 260.646118,89.835640 265.343719,103.107277 
	C268.256500,111.336456 269.699310,120.205276 270.781219,128.913788 
	C271.338654,133.400452 268.277252,138.491516 269.278534,142.736984 
	C271.582458,152.506119 268.061310,161.393875 266.678558,170.556793 
	C265.939301,175.455765 263.982758,180.430084 261.503174,184.755646 
	C255.593948,195.064072 250.096252,205.491516 242.317276,214.855820 
	C230.565918,229.002090 216.243561,239.079056 200.091248,246.884033 
	C188.085037,252.685562 175.092331,255.828674 161.889587,257.337006 
	C155.118317,258.110565 148.139633,257.357086 141.275131,256.949493 
	C133.527542,256.489441 125.425453,256.886536 118.154480,254.680084 
	C106.489456,251.140213 95.057556,246.778290 84.406555,240.258621 
	C73.257729,233.434219 63.119049,225.621002 54.580482,215.908035 
	C46.265686,206.449615 38.178776,196.695145 34.557461,184.150330 
	C32.223213,176.064133 28.947104,168.212112 27.120684,160.025864 
	C24.405453,147.855896 25.250677,135.481003 26.292814,123.092323 
	C27.654478,106.905174 34.389359,92.646179 41.924465,78.852707 
	C45.899117,71.576859 51.890911,65.284378 57.562634,59.088619 
	C62.875462,53.284924 68.847000,48.057335 74.772926,42.854420 
	C77.306229,40.630196 80.343620,38.889030 83.357841,37.325214 
	C87.759254,35.041702 92.233200,32.807373 96.878868,31.105099 
	C105.222275,28.047882 113.534523,24.320267 122.194603,22.864494 
	C132.439316,21.142345 143.038544,21.529242 153.978241,21.002050 
M146.772095,236.019989 
	C147.811050,235.999817 148.850021,235.979660 150.482574,235.958725 
	C150.986328,235.696854 151.490082,235.434998 152.791733,235.015228 
	C158.903824,233.134277 165.591629,232.264572 171.016403,229.176315 
	C185.338135,221.023148 199.571899,212.464645 208.649323,197.867523 
	C212.727859,191.308960 217.659607,185.154144 220.844360,178.193909 
	C226.827438,165.118042 228.921082,151.341980 226.107925,136.875183 
	C224.003204,126.051567 218.381653,117.352417 210.533096,110.378036 
	C201.396225,102.258789 189.669189,99.507950 177.752289,99.203499 
	C171.399765,99.041206 164.898239,100.594009 158.629272,102.073227 
	C141.794617,106.045494 127.430908,114.889168 114.568245,126.111717 
	C110.135727,129.979050 106.374657,134.794617 103.010323,139.663147 
	C98.641869,145.984695 93.942520,152.407028 91.302765,159.499542 
	C88.748405,166.362656 86.196060,173.451614 85.751839,181.147247 
	C85.389305,187.427887 86.051773,193.433334 86.879539,199.559830 
	C87.908455,207.175140 91.638580,213.737793 96.308243,219.186203 
	C100.964981,224.619553 107.054924,229.202637 113.295769,232.810547 
	C122.388969,238.067429 132.788223,237.482864 143.320496,237.427216 
	C144.216232,237.009140 145.111984,236.591064 146.772095,236.019989 
z"/>
<path fill="#000000" opacity="1.000000" stroke="none" 
	d="
M142.957870,236.896667 
	C132.788223,237.482864 122.388969,238.067429 113.295769,232.810547 
	C107.054924,229.202637 100.964981,224.619553 96.308243,219.186203 
	C91.638580,213.737793 87.908455,207.175140 86.879539,199.559830 
	C86.051773,193.433334 85.389305,187.427887 85.751839,181.147247 
	C86.196060,173.451614 88.748405,166.362656 91.302765,159.499542 
	C93.942520,152.407028 98.641869,145.984695 103.010323,139.663147 
	C106.374657,134.794617 110.135727,129.979050 114.568245,126.111717 
	C127.430908,114.889168 141.794617,106.045494 158.629272,102.073227 
	C164.898239,100.594009 171.399765,99.041206 177.752289,99.203499 
	C189.669189,99.507950 201.396225,102.258789 210.533096,110.378036 
	C218.381653,117.352417 224.003204,126.051567 226.107925,136.875183 
	C228.921082,151.341980 226.827438,165.118042 220.844360,178.193909 
	C217.659607,185.154144 212.727859,191.308960 208.649323,197.867523 
	C199.571899,212.464645 185.338135,221.023148 171.016403,229.176315 
	C165.591629,232.264572 158.903824,233.134277 152.074280,235.017456 
	C150.867538,235.332962 150.378265,235.646225 149.888977,235.959488 
	C148.850021,235.979660 147.811050,235.999817 146.045593,236.017334 
	C144.532013,236.308670 143.744934,236.602676 142.957870,236.896667 
M186.013580,143.010818 
	C186.013580,143.010818 186.058060,143.089386 186.741470,142.772369 
	C188.590363,139.831345 190.439270,136.890320 192.961685,132.877945 
	C188.537964,133.513107 185.462189,135.089218 182.984680,137.984619 
	C182.984680,137.984619 182.942276,137.905029 182.198349,137.998718 
	C178.116882,139.963409 174.035416,141.928085 169.299179,143.996506 
	C168.863571,144.055588 168.427948,144.114670 167.456223,144.071625 
	C167.266724,144.368851 167.077209,144.666092 166.162994,144.999847 
	C165.442902,145.056335 164.722794,145.112823 163.160706,145.024643 
	C158.106262,145.072861 153.051804,145.121063 147.169815,145.015015 
	C145.877823,144.904251 144.399353,145.162216 143.325943,144.619308 
	C138.524567,142.190826 133.838638,139.534042 128.814560,136.297256 
	C126.407700,135.126709 124.000832,133.956177 121.593964,132.785645 
	C121.382278,133.102768 121.170586,133.419891 120.958900,133.737015 
	C122.272850,135.506363 123.586800,137.275696 124.995728,139.810410 
	C127.404480,145.128326 130.303604,150.289078 132.073456,155.811737 
	C133.607376,160.598206 134.938248,165.914154 134.399597,170.779160 
	C133.770599,176.460327 131.085876,181.930725 129.152008,187.443069 
	C128.260147,189.985214 127.032898,192.409698 125.293633,195.187241 
	C123.460861,198.286377 121.628098,201.385529 119.075386,205.702072 
	C123.281433,202.911621 126.197357,200.977081 129.877609,199.000610 
	C132.747513,197.718018 135.624969,196.452026 138.485977,195.149872 
	C149.354584,190.203171 160.452286,188.960098 172.209778,193.728683 
	C177.633316,196.199692 183.056854,198.670685 189.000015,201.378418 
	C189.234100,194.293701 184.449203,190.099609 182.018219,184.986603 
	C182.018219,184.986603 182.098114,184.943893 182.193909,184.276566 
	C181.143585,181.813019 180.093262,179.349472 179.002090,176.088242 
	C179.015289,170.763016 179.028473,165.437805 179.588760,159.921753 
	C179.761642,159.265732 179.934525,158.609726 180.026459,157.537338 
	C180.026459,157.537338 180.042603,157.113464 180.685104,156.850784 
	C181.400711,154.566376 182.116318,152.281967 183.093506,149.379715 
	C183.430847,148.600174 183.768204,147.820648 184.739838,146.780472 
	C185.190521,145.538895 185.641205,144.297318 186.013580,143.010818 
z"/>
<path fill="#FFF5FE" opacity="1.000000" stroke="none" 
	d="
M143.139191,237.161942 
	C143.744934,236.602676 144.532013,236.308670 145.663391,236.093842 
	C145.111984,236.591064 144.216232,237.009140 143.139191,237.161942 
z"/>
<path fill="#FFF5FE" opacity="1.000000" stroke="none" 
	d="
M150.185776,235.959106 
	C150.378265,235.646225 150.867538,235.332962 151.675323,235.096420 
	C151.490082,235.434998 150.986328,235.696854 150.185776,235.959106 
z"/>
<path fill="#FEFEFE" opacity="1.000000" stroke="none" 
	d="
M184.105545,147.041107 
	C183.768204,147.820648 183.430847,148.600174 182.567963,149.706985 
	C181.375824,152.393997 180.709213,154.753723 180.042603,157.113464 
	C180.042603,157.113464 180.026459,157.537338 179.799026,157.923553 
	C179.394943,158.910690 179.218307,159.511642 179.041672,160.112579 
	C179.028473,165.437805 179.015289,170.763016 179.010529,176.912048 
	C179.329712,180.444244 177.920151,183.887512 182.098114,184.943893 
	C182.098114,184.943893 182.018219,184.986603 182.022003,185.369019 
	C182.884659,189.378937 183.743546,193.006424 184.714645,197.107864 
	C183.144516,196.184937 181.523712,194.795975 179.655258,194.241394 
	C177.167023,193.502838 174.486069,193.413620 171.887894,193.045486 
	C160.452286,188.960098 149.354584,190.203171 138.485977,195.149872 
	C135.624969,196.452026 132.747513,197.718018 129.125885,198.972900 
	C127.568672,197.592636 126.763191,196.240082 125.957718,194.887512 
	C127.032898,192.409698 128.260147,189.985214 129.152008,187.443069 
	C131.085876,181.930725 133.770599,176.460327 134.399597,170.779160 
	C134.938248,165.914154 133.607376,160.598206 132.073456,155.811737 
	C130.303604,150.289078 127.404480,145.128326 125.258163,139.282104 
	C126.717415,138.155746 127.914223,137.557724 129.111038,136.959702 
	C133.838638,139.534042 138.524567,142.190826 143.325943,144.619308 
	C144.399353,145.162216 145.877823,144.904251 147.648575,145.472961 
	C150.577927,148.160217 161.482025,149.010651 163.606842,147.042694 
	C163.989182,146.688568 163.883209,145.807236 164.002701,145.169312 
	C164.722794,145.112823 165.442902,145.056335 166.750519,144.914597 
	C167.629623,144.684158 167.847733,144.465637 167.992340,144.173767 
	C168.427948,144.114670 168.863571,144.055588 169.825790,144.212463 
	C173.586044,143.435120 176.912796,142.660278 180.007568,141.341125 
	C181.248535,140.812164 181.979294,139.086182 182.942276,137.905029 
	C182.942276,137.905029 182.984680,137.984619 183.346069,137.990509 
	C184.490982,139.694046 185.274521,141.391724 186.058060,143.089386 
	C186.058060,143.089386 186.013580,143.010818 185.674408,143.025345 
	C182.129486,143.514374 182.529373,145.096985 184.105545,147.041107 
M151.411896,149.482834 
	C151.411896,149.482834 151.523026,149.416443 151.411896,149.482834 
z"/>
<path fill="#FEFAFE" opacity="1.000000" stroke="none" 
	d="
M172.048828,193.387085 
	C174.486069,193.413620 177.167023,193.502838 179.655258,194.241394 
	C181.523712,194.795975 183.144516,196.184937 184.714645,197.107864 
	C183.743546,193.006424 182.884659,189.378937 182.043030,185.328903 
	C184.449203,190.099609 189.234100,194.293701 189.000015,201.378418 
	C183.056854,198.670685 177.633316,196.199692 172.048828,193.387085 
z"/>
<path fill="#FEFAFE" opacity="1.000000" stroke="none" 
	d="
M186.399765,142.930878 
	C185.274521,141.391724 184.490982,139.694046 183.306213,137.969421 
	C185.462189,135.089218 188.537964,133.513107 192.961685,132.877945 
	C190.439270,136.890320 188.590363,139.831345 186.399765,142.930878 
z"/>
<path fill="#FEFAFE" opacity="1.000000" stroke="none" 
	d="
M163.581696,145.096985 
	C163.883209,145.807236 163.989182,146.688568 163.606842,147.042694 
	C161.482025,149.010651 150.577927,148.160217 148.062347,145.550110 
	C153.051804,145.121063 158.106262,145.072861 163.581696,145.096985 
z"/>
<path fill="#FFF5FF" opacity="1.000000" stroke="none" 
	d="
M125.625671,195.037384 
	C126.763191,196.240082 127.568672,197.592636 128.743713,198.993881 
	C126.197357,200.977081 123.281433,202.911621 119.075386,205.702072 
	C121.628098,201.385529 123.460861,198.286377 125.625671,195.037384 
z"/>
<path fill="#FEFAFE" opacity="1.000000" stroke="none" 
	d="
M182.570312,137.951874 
	C181.979294,139.086182 181.248535,140.812164 180.007568,141.341125 
	C176.912796,142.660278 173.586044,143.435120 170.153183,144.160614 
	C174.035416,141.928085 178.116882,139.963409 182.570312,137.951874 
z"/>
<path fill="#FFF4FF" opacity="1.000000" stroke="none" 
	d="
M128.962799,136.628479 
	C127.914223,137.557724 126.717415,138.155746 125.210678,138.899414 
	C123.586800,137.275696 122.272850,135.506363 120.958900,133.737015 
	C121.170586,133.419891 121.382278,133.102768 121.593964,132.785645 
	C124.000832,133.956177 126.407700,135.126709 128.962799,136.628479 
z"/>
<path fill="#FEFAFE" opacity="1.000000" stroke="none" 
	d="
M182.146011,184.610229 
	C177.920151,183.887512 179.329712,180.444244 179.030945,177.310898 
	C180.093262,179.349472 181.143585,181.813019 182.146011,184.610229 
z"/>
<path fill="#FEFAFE" opacity="1.000000" stroke="none" 
	d="
M180.363846,156.982117 
	C180.709213,154.753723 181.375824,152.393997 182.437164,150.015900 
	C182.116318,152.281967 181.400711,154.566376 180.363846,156.982117 
z"/>
<path fill="#FEFAFE" opacity="1.000000" stroke="none" 
	d="
M184.422699,146.910797 
	C182.529373,145.096985 182.129486,143.514374 185.713562,143.047821 
	C185.641205,144.297318 185.190521,145.538895 184.422699,146.910797 
z"/>
<path fill="#FEFAFE" opacity="1.000000" stroke="none" 
	d="
M179.315216,160.017166 
	C179.218307,159.511642 179.394943,158.910690 179.839493,158.131744 
	C179.934525,158.609726 179.761642,159.265732 179.315216,160.017166 
z"/>
<path fill="#FEFAFE" opacity="1.000000" stroke="none" 
	d="
M167.724274,144.122696 
	C167.847733,144.465637 167.629623,144.684158 167.112885,144.896332 
	C167.077209,144.666092 167.266724,144.368851 167.724274,144.122696 
z"/>
<path fill="#FEFAFE" opacity="1.000000" stroke="none" 
	d="
M151.467468,149.449646 
	C151.523026,149.416443 151.411896,149.482834 151.467468,149.449646 
z"/>
</svg>